<?xml version="1.0" encoding="utf-8"?>
<!-- Generator: Adobe Illustrator 23.0.3, SVG Export Plug-In . SVG Version: 6.00 Build 0)  -->
<svg version="1.1" id="Layer_1" xmlns="http://www.w3.org/2000/svg" xmlns:xlink="http://www.w3.org/1999/xlink" x="0px" y="0px"
	 width="382.677px" height="382.677px" viewBox="0 0 382.677 382.677" enable-background="new 0 0 382.677 382.677"
	 xml:space="preserve">
<g>
	<path fill="#FFF0E0" d="M115.464,205.149c-0.555-1.005-1.578-1.88-3.068-2.626c-1.491-0.745-2.93-1.118-4.316-1.118
		c-1.144,0-2.072,0.304-2.782,0.91c-0.711,0.607-1.066,1.534-1.066,2.782c0,1.11,0.407,2.046,1.222,2.808
		c0.814,0.763,1.82,1.326,3.016,1.69c1.196,0.364,2.504,0.824,3.926,1.378c1.421,0.555,2.73,1.144,3.926,1.768
		s2.201,1.595,3.016,2.912c0.814,1.318,1.222,2.913,1.222,4.785c0,2.046-0.39,3.813-1.17,5.304c-0.78,1.491-1.846,2.644-3.198,3.458
		s-2.8,1.413-4.342,1.794c-1.543,0.381-3.198,0.572-4.966,0.572c-3.19,0-5.937-0.451-8.242-1.353c-2.306-0.9-3.458-2.08-3.458-3.536
		c0-1.073,0.294-1.94,0.884-2.6c0.589-0.658,1.594-1.369,3.016-2.132c0.866,1.214,2.166,2.228,3.9,3.042
		c1.733,0.814,3.414,1.222,5.044,1.222c1.386,0,2.513-0.329,3.38-0.988c0.866-0.657,1.3-1.681,1.3-3.067
		c0-1.317-0.564-2.374-1.69-3.172c-1.127-0.797-2.488-1.438-4.082-1.924c-1.595-0.485-3.189-1.066-4.784-1.743
		c-1.595-0.676-2.956-1.794-4.082-3.354c-1.127-1.56-1.69-3.57-1.69-6.032c0-1.768,0.381-3.31,1.144-4.628
		c0.762-1.317,1.794-2.348,3.094-3.094c1.3-0.745,2.721-1.291,4.264-1.638c1.542-0.346,3.215-0.52,5.018-0.52
		c2.842,0,5.286,0.416,7.332,1.248c2.045,0.832,3.068,1.994,3.068,3.484c0,0.902-0.425,1.751-1.274,2.548
		C118.176,204.127,116.989,204.733,115.464,205.149z"/>
	<path fill="#FFF0E0" d="M142.764,228.133c-2.323,2.288-5.374,3.433-9.152,3.433c-3.779,0-6.821-1.145-9.126-3.433
		c-2.306-2.288-3.458-5.338-3.458-9.151c0-3.987,1.152-7.177,3.458-9.568c2.305-2.392,5.347-3.588,9.126-3.588
		c3.778,0,6.829,1.196,9.152,3.588c2.322,2.392,3.484,5.582,3.484,9.568C146.248,222.795,145.085,225.845,142.764,228.133z
		 M138.5,220.021c0-2.635-0.434-4.828-1.3-6.579c-0.867-1.75-2.063-2.626-3.588-2.626c-1.491,0-2.661,0.711-3.51,2.132
		c-0.85,1.422-1.274,3.294-1.274,5.617c0,2.288,0.424,4.186,1.274,5.693c0.849,1.509,2.019,2.263,3.51,2.263
		c1.56,0,2.764-0.599,3.614-1.794C138.075,223.531,138.5,221.963,138.5,220.021z"/>
	<path fill="#FFF0E0" d="M167.619,196.569c0,1.144-0.607,2.358-1.82,3.64c-0.867-0.901-2.063-1.352-3.588-1.352
		c-1.56,0-2.609,0.451-3.146,1.352c-0.538,0.902-0.806,2.323-0.806,4.264v1.976c3.085-0.069,5.373-0.208,6.864-0.416
		c0.242,0.486,0.364,1.196,0.364,2.132c0,1.144-0.321,1.933-0.962,2.366c-0.642,0.434-1.604,0.668-2.886,0.702
		c-1.63,0.035-2.756,0.052-3.38,0.052v10.036c0,4.264,0.312,7.419,0.936,9.464c-1.179,0.277-2.444,0.416-3.796,0.416
		c-1.838,0-3.103-0.208-3.796-0.624c-0.694-0.416-1.04-1.109-1.04-2.08c0-0.381,0.017-2.548,0.052-6.5
		c0.034-3.952,0.052-7.505,0.052-10.66c-0.659,0-1.924,0.104-3.796,0.312c-0.278-0.728-0.416-1.508-0.416-2.34
		c0-1.941,1.404-2.912,4.212-2.912c0-1.56,0.078-2.903,0.234-4.03c0.156-1.126,0.459-2.253,0.91-3.38
		c0.45-1.126,1.074-2.045,1.872-2.756c0.797-0.71,1.863-1.282,3.198-1.716c1.334-0.433,2.938-0.65,4.81-0.65
		C165.643,193.865,167.619,194.767,167.619,196.569z"/>
	<path fill="#FFF0E0" d="M170.582,221.633v-10.4c-1.803,0.035-3.346,0.156-4.628,0.364c-0.278-0.762-0.416-1.49-0.416-2.184
		c0-2.045,1.404-3.068,4.212-3.068h0.728c-0.07-2.114-0.174-3.882-0.312-5.304c1.109-0.45,2.374-0.676,3.796-0.676
		c0.936,0,1.672,0.044,2.21,0.13c0.537,0.087,1.057,0.373,1.56,0.858c0.502,0.486,0.754,1.196,0.754,2.132
		c0,0.555-0.052,1.526-0.156,2.912c3.605,0,6.465-0.138,8.58-0.416c0.242,0.486,0.364,1.231,0.364,2.236
		c0,1.838-1.023,2.808-3.068,2.912c-1.318,0.07-3.311,0.104-5.98,0.104c-0.104,3.432-0.156,6.864-0.156,10.296
		c0,0.832,0.017,1.465,0.052,1.897c0.034,0.435,0.13,0.963,0.286,1.586c0.156,0.624,0.433,1.075,0.832,1.353
		c0.398,0.277,0.91,0.416,1.534,0.416c1.733,0,3.12-0.521,4.16-1.561c1.421,1.006,2.132,2.028,2.132,3.068
		c0,0.971-0.598,1.76-1.794,2.366c-1.196,0.606-2.626,0.91-4.29,0.91c-3.779,0-6.457-0.832-8.034-2.496
		C171.37,227.405,170.582,224.927,170.582,221.633z"/>
	<path fill="#FFF0E0" d="M204.278,205.825c1.421,0,2.478,0.217,3.172,0.65c0.693,0.434,1.04,1.17,1.04,2.21
		c0,0.624-0.07,1.283-0.208,1.976c2.288,4.542,3.848,8.823,4.68,12.844c2.08-6.378,3.12-11.474,3.12-15.288
		c0-0.554-0.052-1.092-0.156-1.612c1.145-0.52,2.34-0.78,3.588-0.78c1.422,0,2.479,0.217,3.173,0.65
		c0.692,0.434,1.04,1.17,1.04,2.21c0,2.011-0.755,5.226-2.263,9.646s-3.024,7.74-4.55,9.958c-1.283,1.942-3.224,2.912-5.824,2.912
		c-1.075,0-2.15-0.156-3.224-0.468c-0.659-3.259-1.456-6.726-2.392-10.4c-1.214,3.363-2.479,6.015-3.796,7.956
		c-1.283,1.942-3.224,2.912-5.824,2.912c-1.075,0-2.15-0.156-3.224-0.468c-0.763-3.849-1.994-8.225-3.692-13.13
		c-1.699-4.906-3.12-8.017-4.264-9.334c1.594-1.456,3.258-2.184,4.992-2.184c1.872,0,3.258,1.04,4.16,3.12
		c1.56,4.715,2.86,9.482,3.9,14.3c2.08-6.378,3.12-11.474,3.12-15.288c0-0.554-0.052-1.092-0.156-1.612
		C201.799,206.085,202.995,205.825,204.278,205.825z"/>
	<path fill="#FFF0E0" d="M228.925,214.717c-3.051-0.554-4.575-1.854-4.575-3.9c0-1.386,0.996-2.565,2.989-3.536
		c1.993-0.97,4.395-1.456,7.202-1.456c3.641,0,6.326,0.694,8.061,2.08c1.732,1.387,2.6,3.692,2.6,6.916
		c0,0.278-0.018,1.3-0.052,3.069c-0.035,1.768-0.052,3.085-0.052,3.951c0,3.987,0.329,6.969,0.987,8.944
		c-1.525,0.416-2.878,0.624-4.056,0.624c-2.496,0-3.952-1.005-4.368-3.016c-0.832,0.971-1.897,1.741-3.198,2.313
		c-1.3,0.572-2.608,0.858-3.926,0.858c-1.907,0-3.51-0.615-4.81-1.847c-1.3-1.229-1.95-3.059-1.95-5.485
		c0-1.941,0.39-3.362,1.17-4.265c0.78-0.9,1.846-1.576,3.198-2.027c2.634-0.832,5.754-1.353,9.359-1.561
		c0-2.114-0.233-3.596-0.701-4.446c-0.469-0.849-1.448-1.274-2.938-1.274c-0.867,0-1.794,0.364-2.782,1.092
		C230.096,212.481,229.375,213.469,228.925,214.717z M237.453,220.125c-1.04,0.174-1.838,0.33-2.392,0.468
		c-0.555,0.14-1.153,0.356-1.794,0.65c-0.643,0.295-1.093,0.676-1.353,1.144c-0.26,0.469-0.39,1.05-0.39,1.742
		c0,0.867,0.208,1.518,0.624,1.95c0.416,0.434,0.936,0.65,1.56,0.65c1.456,0,2.669-0.434,3.641-1.301
		c-0.035-0.312-0.053-0.832-0.053-1.56C237.297,222.621,237.35,221.373,237.453,220.125z"/>
	<path fill="#FFF0E0" d="M251.597,206.189c1.317,0,2.34,0.226,3.068,0.676c0.728,0.451,1.092,1.335,1.092,2.652v0.676
		c0.936-1.109,2.054-2.114,3.354-3.016c1.301-0.901,2.592-1.352,3.874-1.352c1.006,0,1.785,0.234,2.34,0.702
		c0.555,0.468,0.832,1.084,0.832,1.846c0,1.422-0.624,2.808-1.871,4.16c-1.214-0.762-2.341-1.144-3.381-1.144
		c-1.525,0-3.311,1.058-5.355,3.172c-0.104,2.046-0.156,4.022-0.156,5.928c0,4.923,0.294,8.268,0.884,10.036
		c-1.456,0.451-2.895,0.676-4.315,0.676c-1.63,0-2.766-0.286-3.406-0.858c-0.642-0.571-0.962-1.412-0.962-2.521
		c0-0.555,0.026-1.854,0.078-3.9c0.052-2.045,0.078-3.674,0.078-4.888c0-4.958-0.122-9.013-0.364-12.168
		C248.702,206.415,250.105,206.189,251.597,206.189z"/>
	<path fill="#FFF0E0" d="M278.429,205.825c2.565,0,4.784,0.642,6.656,1.924c1.872,1.283,2.808,3.19,2.808,5.72
		c0,5.132-3.675,7.696-11.024,7.696c-0.658,0-1.854-0.034-3.588-0.104c0,1.976,0.494,3.415,1.482,4.315
		c0.988,0.902,2.21,1.353,3.666,1.353c2.565,0,4.558-0.832,5.979-2.496c0.798,0.382,1.447,0.893,1.95,1.534
		c0.502,0.642,0.754,1.291,0.754,1.949c0,1.04-0.615,1.872-1.846,2.496s-2.427,1.005-3.588,1.145
		c-1.162,0.138-2.28,0.208-3.354,0.208c-3.813,0-6.934-1.049-9.359-3.146c-2.427-2.097-3.641-5.295-3.641-9.594
		c0-2.842,0.668-5.278,2.002-7.306c1.335-2.028,2.965-3.484,4.889-4.368C274.139,206.267,276.21,205.825,278.429,205.825z
		 M278.013,210.765c-1.248,0-2.34,0.563-3.276,1.69c-0.936,1.127-1.422,2.782-1.456,4.966c0.971-0.068,1.655-0.13,2.055-0.182
		c0.397-0.052,0.97-0.164,1.716-0.338c0.745-0.173,1.282-0.407,1.612-0.702c0.329-0.294,0.632-0.71,0.909-1.249
		c0.277-0.537,0.416-1.204,0.416-2.002c0-0.554-0.19-1.057-0.571-1.508C279.035,210.991,278.566,210.765,278.013,210.765z"/>
	<path fill="#FFF0E0" d="M77.556,244.873c0.138,1.11,0.208,3.779,0.208,8.008h4.108c2.218,0,4.264-0.104,6.136-0.312
		c0.208,0.451,0.312,1.179,0.312,2.184c0,1.283-0.295,2.176-0.884,2.679c-0.59,0.503-1.647,0.754-3.172,0.754h-6.5
		c0,5.858,0.138,9.378,0.416,10.556c1.525,0.07,2.756,0.104,3.692,0.104c5.65,0,9.29-0.397,10.92-1.195
		c0.416,1.04,0.624,2.235,0.624,3.588c0,1.179-0.46,1.959-1.378,2.34c-0.919,0.382-2.748,0.572-5.486,0.572
		c-8.286,0-13.087-0.035-14.404-0.104c-1.006-0.034-1.682-0.276-2.028-0.728c-0.347-0.45-0.52-1.196-0.52-2.236
		c0-0.554,0.017-1.837,0.052-3.848c0.034-2.011,0.052-3.622,0.052-4.836v-10.4c0-4.888-0.226-8.926-0.676-12.116
		c4.472-0.312,9.03-0.468,13.676-0.468c4.992,0,8.233,0.278,9.724,0.832c0.658,0.243,0.988,0.937,0.988,2.08
		c0,1.352-0.208,2.531-0.624,3.536c-2.288-0.729-6.154-1.092-11.596-1.092C80.502,244.769,79.289,244.804,77.556,244.873z"/>
	<path fill="#FFF0E0" d="M93.884,249.865c1.421-0.45,2.773-0.676,4.056-0.676c2.53,0,3.969,1.022,4.316,3.067
		c2.253-2.253,4.818-3.38,7.696-3.38c2.357,0,4.298,0.676,5.824,2.028c1.525,1.352,2.288,3.276,2.288,5.771
		c0,0.07-0.026,1.318-0.078,3.744c-0.052,2.427-0.078,4.265-0.078,5.513c0,2.981,0.294,5.512,0.884,7.592
		c-1.491,0.451-2.999,0.676-4.524,0.676c-2.774,0-4.16-1.057-4.16-3.172c0-1.248,0.052-3.544,0.156-6.89s0.156-5.364,0.156-6.059
		c0-1.421-0.286-2.487-0.858-3.198c-0.572-0.71-1.309-1.065-2.21-1.065c-1.456,0-3.068,0.85-4.836,2.548
		c0.069,4.438,0.104,7.644,0.104,9.62c0,3.051,0.086,5.72,0.26,8.008c-1.144,0.104-2.167,0.156-3.068,0.156
		c-3.467,0-5.2-0.832-5.2-2.496c0-0.139,0.043-1.353,0.13-3.641c0.086-2.287,0.13-4.662,0.13-7.123
		C94.872,255.239,94.542,251.564,93.884,249.865z"/>
	<path fill="#FFF0E0" d="M131.843,268.897c-0.59,0-1.335-0.034-2.236-0.104c-0.347,0.937-0.52,1.612-0.52,2.028
		c0,0.693,1.144,1.04,3.432,1.04h6.032c2.149,0,3.969,0.528,5.46,1.586c1.49,1.057,2.236,2.712,2.236,4.966
		c0,2.6-1.491,4.706-4.472,6.318c-2.982,1.611-6.57,2.418-10.764,2.418c-3.848,0-6.743-0.59-8.684-1.769
		c-1.942-1.179-2.912-2.635-2.912-4.368c0-1.387,1.04-3.085,3.12-5.096c-0.798-0.555-1.196-1.335-1.196-2.34
		c0-0.554,0.39-1.438,1.17-2.652c0.78-1.213,1.69-2.34,2.73-3.38c-1.699-0.832-3.016-2.019-3.952-3.562
		c-0.936-1.542-1.404-3.319-1.404-5.33c0-2.809,1.135-5.148,3.406-7.021c2.271-1.872,5.122-2.808,8.554-2.808
		c3.154,0,5.841,0.78,8.06,2.34c1.698-2.045,3.518-3.068,5.46-3.068c0.936,0,1.698,0.278,2.288,0.832
		c0.589,0.556,0.884,1.335,0.884,2.341c0,0.728-0.174,1.611-0.52,2.651c-0.52-0.104-1.023-0.155-1.508-0.155
		c-1.179,0-2.375,0.277-3.588,0.831c0.589,1.248,0.884,2.601,0.884,4.057c0,3.154-1.17,5.65-3.51,7.488
		C137.953,267.979,135.136,268.897,131.843,268.897z M134.651,277.269h-6.968c-0.312,0.832-0.468,1.611-0.468,2.34
		c0,1.698,1.542,2.548,4.628,2.548c2.253,0,3.96-0.304,5.122-0.91c1.161-0.606,1.742-1.344,1.742-2.21
		C138.707,277.858,137.355,277.269,134.651,277.269z M136.055,259.121c0-1.525-0.382-2.79-1.144-3.796
		c-0.763-1.005-1.803-1.508-3.12-1.508c-2.739,0-4.108,1.456-4.108,4.368c0,1.63,0.364,2.989,1.092,4.082
		c0.728,1.092,1.733,1.638,3.016,1.638c1.525,0,2.617-0.39,3.276-1.17C135.726,261.955,136.055,260.751,136.055,259.121z"/>
	<path fill="#FFF0E0" d="M153.267,247.005c-1.318,0-2.436-0.459-3.354-1.378c-0.918-0.918-1.378-2.088-1.378-3.51
		c0-1.352,0.485-2.496,1.456-3.432c0.97-0.937,2.097-1.404,3.38-1.404c1.282,0,2.383,0.468,3.302,1.404
		c0.918,0.936,1.378,2.08,1.378,3.432c0,1.387-0.486,2.548-1.456,3.484C155.624,246.537,154.515,247.005,153.267,247.005z
		 M153.371,249.189c1.317,0,2.34,0.226,3.068,0.676c0.728,0.451,1.092,1.335,1.092,2.652c0,0.208-0.061,1.733-0.182,4.575
		c-0.122,2.844-0.182,4.976-0.182,6.396c0,4.923,0.294,8.268,0.884,10.036c-1.456,0.451-2.895,0.676-4.316,0.676
		c-1.63,0-2.765-0.286-3.406-0.858c-0.642-0.571-0.962-1.412-0.962-2.521c0-0.555,0.026-1.854,0.078-3.9
		c0.052-2.045,0.078-3.674,0.078-4.888c0-4.957-0.122-9.013-0.364-12.168C150.476,249.415,151.88,249.189,153.371,249.189z"/>
	<path fill="#FFF0E0" d="M159.402,249.865c1.421-0.45,2.773-0.676,4.056-0.676c2.53,0,3.969,1.022,4.316,3.067
		c2.253-2.253,4.818-3.38,7.696-3.38c2.357,0,4.298,0.676,5.824,2.028c1.525,1.352,2.288,3.276,2.288,5.771
		c0,0.07-0.026,1.318-0.078,3.744c-0.052,2.427-0.078,4.265-0.078,5.513c0,2.981,0.294,5.512,0.884,7.592
		c-1.491,0.451-2.999,0.676-4.524,0.676c-2.774,0-4.16-1.057-4.16-3.172c0-1.248,0.052-3.544,0.156-6.89s0.156-5.364,0.156-6.059
		c0-1.421-0.286-2.487-0.858-3.198c-0.572-0.71-1.309-1.065-2.21-1.065c-1.456,0-3.068,0.85-4.836,2.548
		c0.069,4.438,0.104,7.644,0.104,9.62c0,3.051,0.086,5.72,0.26,8.008c-1.144,0.104-2.167,0.156-3.068,0.156
		c-3.467,0-5.2-0.832-5.2-2.496c0-0.139,0.043-1.353,0.13-3.641c0.086-2.287,0.13-4.662,0.13-7.123
		C160.391,255.239,160.061,251.564,159.402,249.865z"/>
	<path fill="#FFF0E0" d="M198.35,248.825c2.565,0,4.784,0.642,6.656,1.924c1.872,1.283,2.808,3.19,2.808,5.72
		c0,5.132-3.675,7.696-11.024,7.696c-0.659,0-1.854-0.034-3.588-0.104c0,1.976,0.494,3.415,1.482,4.315
		c0.988,0.902,2.21,1.353,3.666,1.353c2.565,0,4.558-0.832,5.98-2.496c0.797,0.382,1.447,0.893,1.95,1.534
		c0.502,0.642,0.754,1.291,0.754,1.949c0,1.04-0.616,1.872-1.846,2.496c-1.231,0.624-2.427,1.005-3.588,1.145
		c-1.162,0.138-2.28,0.208-3.354,0.208c-3.813,0-6.934-1.049-9.36-3.146c-2.427-2.097-3.64-5.295-3.64-9.594
		c0-2.842,0.667-5.278,2.002-7.306c1.334-2.028,2.964-3.484,4.888-4.368S196.131,248.825,198.35,248.825z M197.934,253.766
		c-1.248,0-2.34,0.563-3.276,1.689c-0.936,1.127-1.422,2.782-1.456,4.966c0.97-0.068,1.655-0.13,2.054-0.182
		c0.398-0.052,0.97-0.164,1.716-0.338c0.745-0.173,1.282-0.407,1.612-0.702c0.329-0.294,0.632-0.71,0.91-1.248
		c0.277-0.537,0.416-1.204,0.416-2.002c0-0.554-0.191-1.057-0.572-1.508C198.957,253.991,198.488,253.766,197.934,253.766z"/>
	<path fill="#FFF0E0" d="M221.334,248.825c2.565,0,4.784,0.642,6.656,1.924c1.872,1.283,2.808,3.19,2.808,5.72
		c0,5.132-3.675,7.696-11.024,7.696c-0.658,0-1.854-0.034-3.588-0.104c0,1.976,0.494,3.415,1.482,4.315
		c0.988,0.902,2.21,1.353,3.666,1.353c2.565,0,4.558-0.832,5.979-2.496c0.798,0.382,1.447,0.893,1.95,1.534
		c0.502,0.642,0.754,1.291,0.754,1.949c0,1.04-0.615,1.872-1.846,2.496s-2.427,1.005-3.588,1.145
		c-1.162,0.138-2.28,0.208-3.354,0.208c-3.813,0-6.934-1.049-9.36-3.146c-2.427-2.097-3.64-5.295-3.64-9.594
		c0-2.842,0.667-5.278,2.002-7.306c1.334-2.028,2.964-3.484,4.888-4.368C217.044,249.268,219.115,248.825,221.334,248.825z
		 M220.918,253.766c-1.248,0-2.34,0.563-3.276,1.689c-0.936,1.127-1.422,2.782-1.456,4.966c0.971-0.068,1.655-0.13,2.055-0.182
		c0.397-0.052,0.97-0.164,1.716-0.338c0.745-0.173,1.282-0.407,1.612-0.702c0.329-0.294,0.632-0.71,0.909-1.248
		c0.277-0.537,0.416-1.204,0.416-2.002c0-0.554-0.19-1.057-0.571-1.508C221.94,253.991,221.472,253.766,220.918,253.766z"/>
	<path fill="#FFF0E0" d="M235.945,249.189c1.317,0,2.34,0.226,3.068,0.676c0.728,0.451,1.092,1.335,1.092,2.652v0.676
		c0.936-1.109,2.054-2.114,3.354-3.017c1.301-0.9,2.592-1.352,3.874-1.352c1.006,0,1.785,0.234,2.34,0.702s0.832,1.084,0.832,1.846
		c0,1.422-0.624,2.809-1.871,4.16c-1.214-0.762-2.341-1.144-3.381-1.144c-1.525,0-3.311,1.058-5.355,3.172
		c-0.104,2.046-0.156,4.021-0.156,5.928c0,4.923,0.294,8.268,0.884,10.036c-1.456,0.451-2.895,0.676-4.315,0.676
		c-1.63,0-2.766-0.286-3.406-0.858c-0.642-0.571-0.962-1.412-0.962-2.521c0-0.555,0.026-1.854,0.078-3.9
		c0.052-2.045,0.078-3.674,0.078-4.888c0-4.957-0.122-9.013-0.364-12.168C233.051,249.415,234.454,249.189,235.945,249.189z"/>
	<path fill="#FFF0E0" d="M254.821,247.005c-1.318,0-2.436-0.459-3.354-1.378c-0.918-0.918-1.378-2.088-1.378-3.51
		c0-1.352,0.485-2.496,1.456-3.432c0.971-0.937,2.098-1.404,3.38-1.404s2.384,0.468,3.303,1.404c0.918,0.936,1.378,2.08,1.378,3.432
		c0,1.387-0.486,2.548-1.456,3.484C257.179,246.537,256.069,247.005,254.821,247.005z M254.925,249.189
		c1.317,0,2.341,0.226,3.068,0.676c0.729,0.451,1.092,1.335,1.092,2.652c0,0.208-0.061,1.733-0.182,4.575
		c-0.122,2.844-0.182,4.976-0.182,6.396c0,4.923,0.294,8.268,0.884,10.036c-1.456,0.451-2.896,0.676-4.316,0.676
		c-1.63,0-2.765-0.286-3.406-0.858c-0.642-0.571-0.962-1.412-0.962-2.521c0-0.555,0.026-1.854,0.078-3.9
		c0.053-2.045,0.078-3.674,0.078-4.888c0-4.957-0.122-9.013-0.364-12.168C252.03,249.415,253.435,249.189,254.925,249.189z"/>
	<path fill="#FFF0E0" d="M260.956,249.865c1.422-0.45,2.773-0.676,4.057-0.676c2.53,0,3.969,1.022,4.315,3.067
		c2.253-2.253,4.818-3.38,7.696-3.38c2.357,0,4.298,0.676,5.824,2.028c1.524,1.352,2.288,3.276,2.288,5.771
		c0,0.07-0.026,1.318-0.078,3.744c-0.052,2.427-0.078,4.265-0.078,5.513c0,2.981,0.294,5.512,0.884,7.592
		c-1.491,0.451-2.999,0.676-4.523,0.676c-2.774,0-4.16-1.057-4.16-3.172c0-1.248,0.052-3.544,0.156-6.89
		c0.104-3.346,0.155-5.364,0.155-6.059c0-1.421-0.286-2.487-0.857-3.198c-0.572-0.71-1.31-1.065-2.21-1.065
		c-1.456,0-3.068,0.85-4.836,2.548c0.068,4.438,0.104,7.644,0.104,9.62c0,3.051,0.086,5.72,0.26,8.008
		c-1.144,0.104-2.167,0.156-3.067,0.156c-3.467,0-5.2-0.832-5.2-2.496c0-0.139,0.043-1.353,0.13-3.641
		c0.086-2.287,0.13-4.662,0.13-7.123C261.944,255.239,261.614,251.564,260.956,249.865z"/>
	<path fill="#FFF0E0" d="M298.916,268.897c-0.59,0-1.335-0.034-2.235-0.104c-0.348,0.937-0.521,1.612-0.521,2.028
		c0,0.693,1.145,1.04,3.432,1.04h6.032c2.149,0,3.97,0.528,5.46,1.586c1.49,1.057,2.236,2.712,2.236,4.966
		c0,2.6-1.491,4.706-4.472,6.318c-2.982,1.611-6.57,2.418-10.765,2.418c-3.848,0-6.743-0.59-8.684-1.769
		c-1.942-1.179-2.912-2.635-2.912-4.368c0-1.387,1.04-3.085,3.12-5.096c-0.798-0.555-1.196-1.335-1.196-2.34
		c0-0.554,0.39-1.438,1.17-2.652c0.78-1.213,1.69-2.34,2.73-3.38c-1.699-0.832-3.017-2.019-3.952-3.562
		c-0.937-1.542-1.404-3.319-1.404-5.33c0-2.809,1.135-5.148,3.406-7.021c2.271-1.872,5.122-2.808,8.554-2.808
		c3.154,0,5.841,0.78,8.061,2.34c1.698-2.045,3.518-3.068,5.46-3.068c0.936,0,1.698,0.278,2.288,0.832
		c0.589,0.556,0.884,1.335,0.884,2.341c0,0.728-0.174,1.611-0.521,2.651c-0.52-0.104-1.022-0.155-1.508-0.155
		c-1.179,0-2.375,0.277-3.588,0.831c0.589,1.248,0.884,2.601,0.884,4.057c0,3.154-1.17,5.65-3.51,7.488
		S302.209,268.897,298.916,268.897z M301.725,277.269h-6.969c-0.312,0.832-0.468,1.611-0.468,2.34c0,1.698,1.542,2.548,4.628,2.548
		c2.253,0,3.96-0.304,5.122-0.91c1.161-0.606,1.742-1.344,1.742-2.21C305.78,277.858,304.429,277.269,301.725,277.269z
		 M303.128,259.121c0-1.525-0.382-2.79-1.144-3.796c-0.763-1.005-1.803-1.508-3.12-1.508c-2.739,0-4.108,1.456-4.108,4.368
		c0,1.63,0.364,2.989,1.093,4.082c0.728,1.092,1.732,1.638,3.016,1.638c1.525,0,2.617-0.39,3.276-1.17
		C302.799,261.955,303.128,260.751,303.128,259.121z"/>
	<path fill="#FFF0E0" d="M112.396,307.321c-1.422,0-2.964-0.069-4.628-0.208c-2.358,5.686-3.779,9.308-4.264,10.868
		c-1.214-0.174-2.098-0.312-2.652-0.416c-0.555-0.104-1.196-0.286-1.924-0.546c-0.728-0.261-1.231-0.599-1.508-1.015
		c-0.278-0.416-0.416-0.936-0.416-1.56c0-0.729,0.598-2.496,1.794-5.304c1.196-2.809,2.799-6.69,4.81-11.648
		c2.01-4.957,3.709-9.811,5.096-14.56c1.629-0.242,2.964-0.364,4.004-0.364c2.912,0,4.784,1.266,5.616,3.796
		c2.565,7.904,4.402,13.277,5.512,16.12c2.704,7.038,4.541,11.51,5.512,13.416c-1.629,1.109-3.242,1.664-4.836,1.664
		c-2.046,0-3.363-0.658-3.952-1.977c-0.382-0.9-0.893-2.184-1.534-3.848c-0.642-1.664-1.24-3.172-1.794-4.524
		C114.527,307.287,112.916,307.321,112.396,307.321z M116.087,302.069c-0.555-1.906-1.214-4.359-1.976-7.358
		c-0.763-2.998-1.214-4.74-1.352-5.226c-2.15,7.488-3.363,11.683-3.64,12.584c1.664,0.069,2.981,0.104,3.952,0.104
		C114.423,302.173,115.429,302.139,116.087,302.069z"/>
	<path fill="#FFF0E0" d="M140.735,312.625c1.074,0,2.088-0.268,3.042-0.806c0.953-0.537,1.603-1.274,1.95-2.21
		c1.56,0.555,2.582,1.092,3.068,1.611c0.485,0.521,0.728,1.145,0.728,1.872c0,1.422-0.832,2.522-2.496,3.303
		c-1.664,0.779-3.831,1.17-6.5,1.17c-3.883,0-7.003-1.083-9.36-3.25c-2.358-2.166-3.536-5.191-3.536-9.074
		c0-2.288,0.39-4.316,1.17-6.084c0.78-1.768,1.794-3.172,3.042-4.212c1.248-1.04,2.6-1.82,4.056-2.34
		c1.456-0.521,2.929-0.78,4.42-0.78c2.184,0,4.272,0.451,6.266,1.352c1.993,0.902,2.99,2.15,2.99,3.744
		c0,2.115-1.699,3.38-5.096,3.796c-0.312-1.178-0.867-2.113-1.664-2.808c-0.798-0.693-1.682-1.04-2.652-1.04
		c-1.283,0-2.392,0.65-3.328,1.95s-1.404,3.216-1.404,5.746C135.432,309.939,137.2,312.625,140.735,312.625z"/>
	<path fill="#FFF0E0" d="M154.982,300.717c-3.051-0.554-4.576-1.854-4.576-3.899c0-1.387,0.996-2.565,2.99-3.536
		c1.993-0.97,4.394-1.456,7.202-1.456c3.64,0,6.326,0.693,8.06,2.08c1.733,1.387,2.6,3.691,2.6,6.916c0,0.277-0.018,1.3-0.052,3.068
		c-0.035,1.768-0.052,3.085-0.052,3.951c0,3.987,0.329,6.969,0.988,8.944c-1.526,0.416-2.878,0.624-4.056,0.624
		c-2.496,0-3.952-1.005-4.368-3.016c-0.832,0.971-1.898,1.741-3.198,2.313c-1.3,0.572-2.609,0.858-3.926,0.858
		c-1.907,0-3.51-0.615-4.81-1.847c-1.3-1.229-1.95-3.059-1.95-5.485c0-1.941,0.39-3.362,1.17-4.265
		c0.78-0.9,1.846-1.576,3.198-2.027c2.634-0.832,5.754-1.353,9.36-1.561c0-2.114-0.234-3.596-0.702-4.445
		c-0.468-0.85-1.448-1.274-2.938-1.274c-0.867,0-1.794,0.364-2.782,1.092C156.153,298.481,155.433,299.469,154.982,300.717z
		 M163.511,306.125c-1.04,0.174-1.838,0.33-2.392,0.468c-0.555,0.14-1.153,0.356-1.794,0.65c-0.642,0.295-1.092,0.676-1.352,1.144
		c-0.26,0.469-0.39,1.05-0.39,1.742c0,0.867,0.208,1.518,0.624,1.95c0.416,0.434,0.936,0.65,1.56,0.65
		c1.456,0,2.669-0.434,3.64-1.301c-0.035-0.312-0.052-0.832-0.052-1.56C163.354,308.621,163.407,307.373,163.511,306.125z"/>
	<path fill="#FFF0E0" d="M172.922,304.721c0-3.569,0.988-6.611,2.964-9.126c1.976-2.513,4.437-3.77,7.384-3.77
		c1.941,0,3.9,0.59,5.876,1.768c0.069-2.218,0.104-3.969,0.104-5.252c0-3.777-0.139-6.863-0.416-9.256
		c1.594-0.45,2.756-0.676,3.484-0.676c3.224,0,4.836,1.109,4.836,3.328c0,2.046-0.078,5.979-0.234,11.804
		c-0.156,5.824-0.234,9.794-0.234,11.908c0,5.478,0.329,9.256,0.988,11.336c-1.664,0.416-3.016,0.624-4.056,0.624
		c-1.456,0-2.496-0.269-3.12-0.806s-1.04-1.274-1.248-2.21c-0.902,0.936-1.95,1.698-3.146,2.288
		c-1.196,0.589-2.332,0.884-3.406,0.884c-2.67,0-4.966-1.213-6.89-3.641C173.884,311.499,172.922,308.431,172.922,304.721z
		 M188.938,297.909c-1.04-0.762-2.115-1.144-3.224-1.144c-1.56,0-2.791,0.685-3.692,2.054c-0.902,1.37-1.352,3.181-1.352,5.434
		c0,2.496,0.45,4.55,1.352,6.162c0.901,1.612,2.01,2.418,3.328,2.418c1.525,0,2.756-0.52,3.692-1.56
		C188.972,304.132,188.938,299.677,188.938,297.909z"/>
	<path fill="#FFF0E0" d="M211.713,291.825c2.565,0,4.785,0.642,6.657,1.924c1.872,1.283,2.808,3.19,2.808,5.72
		c0,5.132-3.675,7.696-11.024,7.696c-0.659,0-1.854-0.034-3.588-0.104c0,1.976,0.494,3.415,1.482,4.315
		c0.988,0.902,2.21,1.353,3.666,1.353c2.565,0,4.558-0.832,5.98-2.496c0.798,0.382,1.447,0.893,1.95,1.534
		c0.502,0.642,0.754,1.291,0.754,1.949c0,1.04-0.615,1.872-1.846,2.496s-2.427,1.005-3.588,1.145
		c-1.162,0.138-2.28,0.208-3.354,0.208c-3.813,0-6.934-1.049-9.36-3.146c-2.427-2.097-3.64-5.295-3.64-9.594
		c0-2.842,0.667-5.278,2.002-7.306c1.334-2.028,2.964-3.484,4.888-4.368S209.495,291.825,211.713,291.825z M211.297,296.766
		c-1.248,0-2.34,0.563-3.276,1.689c-0.936,1.127-1.422,2.782-1.456,4.966c0.97-0.068,1.655-0.13,2.054-0.182
		c0.398-0.052,0.97-0.164,1.716-0.338c0.745-0.173,1.282-0.407,1.612-0.702c0.329-0.294,0.632-0.71,0.91-1.248
		c0.277-0.537,0.416-1.204,0.416-2.002c0-0.554-0.191-1.057-0.572-1.508C212.32,296.991,211.852,296.766,211.297,296.766z"/>
	<path fill="#FFF0E0" d="M222.113,292.865c1.421-0.45,2.773-0.676,4.056-0.676c2.53,0,3.97,1.022,4.316,3.067
		c2.114-2.253,4.506-3.38,7.176-3.38c3.328,0,5.599,1.335,6.812,4.004c2.148-2.669,4.714-4.004,7.695-4.004
		c2.219,0,4.038,0.676,5.46,2.028c1.421,1.352,2.132,3.276,2.132,5.771c0,0.07-0.025,1.318-0.077,3.744
		c-0.053,2.427-0.078,4.265-0.078,5.513c0,2.981,0.294,5.512,0.884,7.592c-1.491,0.451-2.999,0.676-4.524,0.676
		c-2.773,0-4.159-1.057-4.159-3.172c0-1.248,0.052-3.544,0.155-6.89c0.104-3.346,0.156-5.364,0.156-6.059
		c0-1.421-0.243-2.487-0.728-3.198c-0.486-0.71-1.127-1.065-1.925-1.065c-1.282,0-2.687,0.85-4.212,2.548
		c0.069,4.438,0.104,7.644,0.104,9.62c0,3.051,0.086,5.72,0.26,8.008c-1.144,0.104-2.167,0.156-3.068,0.156
		c-3.467,0-5.199-0.832-5.199-2.496c0-0.173,0.043-1.438,0.13-3.796c0.086-2.357,0.13-4.681,0.13-6.968v-2.912
		c0-1.422-0.252-2.471-0.754-3.146c-0.503-0.676-1.136-1.014-1.898-1.014c-1.283,0-2.687,0.85-4.212,2.548
		c0.069,4.438,0.104,7.644,0.104,9.62c0,3.051,0.086,5.72,0.26,8.008c-1.145,0.104-2.167,0.156-3.068,0.156
		c-3.467,0-5.2-0.832-5.2-2.496c0-0.139,0.043-1.353,0.131-3.641c0.086-2.287,0.13-4.662,0.13-7.123
		C223.102,298.239,222.771,294.564,222.113,292.865z"/>
	<path fill="#FFF0E0" d="M281.341,291.825c2.601,0,3.9,0.867,3.9,2.6c0,1.63-0.616,4.395-1.846,8.294
		c-1.231,3.9-2.696,7.653-4.395,11.259c-2.427,5.096-5.044,9.672-7.852,13.728c-1.04,1.561-2.254,2.34-3.641,2.34
		c-1.768,0-3.467-1.058-5.096-3.172c2.912-2.184,5.616-5.252,8.112-9.204c-4.68-12.965-8.216-20.608-10.608-22.932
		c2.253-1.769,4.194-2.652,5.824-2.652c0.797,0,1.43,0.174,1.898,0.521c0.468,0.347,0.875,0.901,1.222,1.664
		c0.554,1.214,1.386,3.71,2.496,7.487c1.108,3.779,1.976,7.09,2.6,9.933c0.937-2.843,1.794-5.963,2.574-9.36s1.17-5.841,1.17-7.332
		c0-0.832-0.052-1.629-0.156-2.392C278.724,292.085,279.989,291.825,281.341,291.825z"/>
</g>
<g>
	<path fill="#FFF0E0" d="M274.301,115.996c0-0.312-0.195-0.312-0.342-0.753c-1.136,0.33-2.163,0.59-3.166,0.924
		c-24.649,8.217-49.308,16.403-73.93,24.701c-1.799,0.606-3.566,0.97-5.326,1.105c-1.76-0.135-3.527-0.499-5.326-1.105
		c-24.621-8.299-49.281-16.484-73.93-24.701c-1.003-0.334-2.03-0.595-3.166-0.924c0,0-0.242-0.007-0.437,0.617
		c-4.69,9.322-6.056,18.863-5.926,30.719c0.086,7.922,11.219,18.137,17.179,22.209c10.8,7.379,23.118,10.923,35.76,13.406
		c11.909,2.34,23.866,3.474,35.846,3.519c11.98-0.045,23.937-1.179,35.846-3.519c12.641-2.484,24.96-6.027,35.76-13.406
		c5.96-4.072,17.093-14.287,17.179-22.209C280.452,134.722,278.992,125.318,274.301,115.996z"/>
	<path fill="#FFF0E0" d="M94.26,124.51c3.111-9.075,8.082-16.089,15.474-20.47l-15.922-3.188
		c-7.385,8.307-10.827,17.264-13.93,27.274c-0.302,0.975-1.417,1.982-2.401,2.419c-9.068,4.027-11.318,15.23-4.262,22.124
		c1.253,1.224,1.333,2.125,0.807,3.671c-5.624,16.531-24.902,18.998-35.912,27.303c-3.406,1.796-10.762,6.324-5.937,11.02
		c0.95,1.147,8.655,4.652,12.046,8.044c6.129,4.958,5.363,5.232,9.331,8.39c3.467,2.759,7.224,2.645,11.076,0.951
		c8.859-3.895,14.559-10.76,17.682-19.695c3.89-11.129,3.049-22.089,3.827-33.744c0.109-1.634,1.596-2.423,3.109-3.391
		c8.138-3.401,9.216-16.768,4.102-20.205c-3.428-3.586-1.433-4.389-0.105-7.864C93.5,126.484,94.029,125.184,94.26,124.51z"/>
	<path fill="#FFF0E0" d="M318.235,82.249c-41.221-13.725-82.428-27.492-123.676-41.134c-1.801-0.596-4.138-0.618-5.934-0.024
		c-41.335,13.663-82.63,27.446-123.929,41.217c-3.264,1.089-4.762,2.839-4.744,5.372c0.018,2.501,1.509,4.174,4.828,5.289
		c7.929,2.665,15.869,5.297,23.8,7.957c1.211,0.406,2.398,0.886,3.662,1.356c-1.225,1.67-2.298,3.33-3.267,4.987h16.238
		c2.916-2.623,6.433-4.808,10.617-6.51c9.63-3.918,19.132-8.159,28.816-11.936c14.152-5.52,28.401-10.792,42.651-16.054
		c1.685-0.622,4.734-1.804,6.419-1.192c1.835,0.666,1.552,0.887,2.006,1.992c0.19,3.299-5.998,4.654-9.765,6.1
		c-22.6,8.672-46.265,18.221-68.857,26.915c-0.956,0.479-2.619,1.06-4.025,2.293c0.541,0.283,9.471,3.388,9.719,3.471
		c22.032,7.355,44.052,14.746,66.125,21.972c1.704,0.558,3.935,0.407,5.671-0.168c41.226-13.652,82.419-27.404,123.615-41.148
		c3.477-1.16,5.033-2.894,4.911-5.487C322.971,84.422,320.867,83.126,318.235,82.249z"/>
</g>
<g>
	<path fill="#FFF0E0" d="M367.657,197.004c-8.502-52.885-38.653-56.57-54.357-53.584c-2.441,0.464-3.06,3.671-0.969,5.012
		l12.744,8.336c9.267,7.472,25.604,26.499,28.328,53.775c3.312,33.166-8.24,66.125-30.165,92.725
		c-31.801,37.456-79.225,61.229-132.21,61.229c-95.759,0-173.387-77.628-173.387-173.387c0-13.272,1.497-26.193,4.321-38.61H7.94
		c-2.615,12.46-3.998,25.373-3.998,38.61c0,103.325,83.762,187.087,187.087,187.087c43.613,0,83.729-14.936,115.543-39.955
		C350.617,305.064,376.69,253.192,367.657,197.004z"/>
	<path fill="#FFF0E0" d="M372.554,158.707c-0.277-3.048,0.166-2.993-1.995-15.297c-0.059-0.334-0.149-0.868-0.298-1.353
		C353.671,56.723,281.983,3.92,191.014,3.92C87.688,3.92,3.927,87.682,3.927,191.007s83.762,187.087,187.087,187.087
		c39.086,0,75.367-11.993,105.379-32.49H269.59c-23.589,12.013-50.291,18.791-78.577,18.791
		c-95.759,0-173.387-77.628-173.387-173.387c0-95.759,77.628-173.387,173.387-173.387c79.365,0,146.264,53.327,166.846,126.102
		c1.134,5.958,3.632,18.434,5.105,21.912l2.882,5.709c2.487,4.687,6.291-2.174,6.311-6.094
		C372.164,164.09,372.68,160.102,372.554,158.707z"/>
</g>
</svg>
